grf
version=1
nRows=6
nColumns=37
inDegrees=no
endheader
time	ground_force_1_vx	ground_force_1_vy	ground_force_1_vz	ground_force_1_px	ground_force_1_py	ground_force_1_pz	ground_moment_1_mx	ground_moment_1_my	ground_moment_1_mz	ground_force_2_vx	ground_force_2_vy	ground_force_2_vz	ground_force_2_px	ground_force_2_py	ground_force_2_pz	ground_moment_2_mx	ground_moment_2_my	ground_moment_2_mz	ground_force_3_vx	ground_force_3_vy	ground_force_3_vz	ground_force_3_px	ground_force_3_py	ground_force_3_pz	ground_moment_3_mx	ground_moment_3_my	ground_moment_3_mz	ground_force_4_vx	ground_force_4_vy	ground_force_4_vz	ground_force_4_px	ground_force_4_py	ground_force_4_pz	ground_moment_4_mx	ground_moment_4_my	ground_moment_4_mz
      3.53000000	      0.00000000	     -0.00000000	      0.00000000	      0.00000000	      0.00000000	      0.00000000	      0.00000000	      0.00000000	      0.00000000	     -6.62561512	     17.18211365	   -364.91827393	   -340.77815609	  -1067.39022209	      0.00000000	      0.00000000	      0.00000000	   7463.14966402	     -2.15035334	    -18.06072789	   -364.16235352	   -330.22426709	   -732.22778225	      0.00000000	      0.00000000	     -0.00000000	  -6931.09901960	      0.00000000	     -0.00000000	      0.00000000	      0.00000000	      0.00000000	      0.00000000	      0.00000000	      0.00000000	      0.00000000
      3.54000000	      0.00000000	     -0.00000000	      0.00000000	      0.00000000	      0.00000000	      0.00000000	      0.00000000	      0.00000000	      0.00000000	     -6.64430523	     16.39999390	   -365.27511597	   -341.67393427	  -1065.66840555	      0.00000000	      0.00000000	      0.00000000	   7516.62499227	     -2.06131879	    -18.10690862	   -364.94598389	   -330.86361654	   -730.81649094	      0.00000000	      0.00000000	     -0.00000000	  -7135.41473874	      0.00000000	     -0.00000000	      0.00000000	      0.00000000	      0.00000000	      0.00000000	      0.00000000	      0.00000000	      0.00000000
      3.55000000	      0.00000000	     -0.00000000	      0.00000000	      0.00000000	      0.00000000	      0.00000000	      0.00000000	      0.00000000	      0.00000000	     -6.78151131	     16.17490196	   -368.29187012	   -340.98428695	  -1067.72123636	      0.00000000	      0.00000000	      0.00000000	   7588.17606770	     -2.35145033	    -17.79620913	   -366.34613037	   -330.46466337	   -731.00081587	      0.00000000	      0.00000000	     -0.00000000	  -6924.86969197	      0.00000000	     -0.00000000	      0.00000000	      0.00000000	      0.00000000	      0.00000000	      0.00000000	      0.00000000	      0.00000000
      3.56000000	      0.00000000	     -0.00000000	      0.00000000	      0.00000000	      0.00000000	      0.00000000	      0.00000000	      0.00000000	      0.00000000	     -6.75632858	     16.79652596	   -369.07305908	   -341.64713614	  -1066.57407746	      0.00000000	      0.00000000	      0.00000000	   7623.57486929	     -1.88165177	    -17.86267836	   -367.49111938	   -330.53857606	   -730.67304253	      0.00000000	      0.00000000	     -0.00000000	  -7060.39868978	      0.00000000	     -0.00000000	      0.00000000	      0.00000000	      0.00000000	      0.00000000	      0.00000000	      0.00000000	      0.00000000
      3.57000000	      0.00000000	     -0.00000000	      0.00000000	      0.00000000	      0.00000000	      0.00000000	      0.00000000	      0.00000000	      0.00000000	     -7.29348040	     17.09543991	   -369.77941895	   -341.36760692	  -1065.97953178	      0.00000000	      0.00000000	      0.00000000	   7458.77733455	     -1.90818057	    -17.46070082	   -366.60919189	   -331.33195114	   -731.47247727	      0.00000000	      0.00000000	     -0.00000000	  -7031.01511017	      0.00000000	     -0.00000000	      0.00000000	      0.00000000	      0.00000000	      0.00000000	      0.00000000	      0.00000000	      0.00000000
      3.58000000	      0.00000000	     -0.00000000	      0.00000000	      0.00000000	      0.00000000	      0.00000000	      0.00000000	      0.00000000	      0.00000000	     -6.82340670	     16.47461700	   -369.95126343	   -341.99509559	  -1066.10717395	      0.00000000	     -0.00000000	     -0.00000000	   7680.14396770	     -1.70926166	    -17.77630982	   -368.62719727	   -331.44467800	   -730.15800008	      0.00000000	      0.00000000	     -0.00000000	  -7116.91902167	      0.00000000	     -0.00000000	      0.00000000	      0.00000000	      0.00000000	      0.00000000	      0.00000000	      0.00000000	      0.00000000
